<?xml version="1.0" encoding="iso-8859-1"?>
<!-- Generator: Adobe Illustrator 19.0.0, SVG Export Plug-In . SVG Version: 6.00 Build 0)  -->
<svg version="1.1" id="Capa_1" xmlns="http://www.w3.org/2000/svg" xmlns:xlink="http://www.w3.org/1999/xlink" x="0px" y="0px"
	 viewBox="0 0 512.002 512.002" style="enable-background:new 0 0 512.002 512.002;" xml:space="preserve">
<g>
	<g>
		<path d="M172.306,109.131c-14.245,0-86.933,0-100.838,0c-24.879,0-45.221,19.928-45.344,44.519c0,5.704,0,129.887,0,135.589
			c-15.223,7.75-23.607,24.04-22.848,37.634c-2.279,0.96-3.527,3.276-3.234,5.598c2.057,16.33,8.666,68.812,10.719,85.122
			c0.319,2.524,2.487,4.684,5.312,4.684c6.974,0,50.914,0,57.834,0c2.697,0,4.975-2.007,5.312-4.684
			c1.285-10.21,9.42-74.802,10.719-85.122c0.293-2.319-0.955-4.637-3.234-5.598c0.7-12.508-6.674-29.4-22.847-37.634
			c0-5.7,0-129.794,0-135.494c0-0.001,0-0.002,0-0.002c0.012-2.256,1.847-4.076,4.102-4.07c2.256,0.006,4.08,1.836,4.08,4.092
			v125.623c4.902,2.828,9.331,6.387,13.116,10.547c6.702,7.365,11.394,16.578,13.249,26.77c4.935,4.503,7.326,11.102,6.502,17.65
			l-10.719,85.122c-1.284,10.195-10.002,17.885-20.278,17.885h-1.859v33.536c0,12.503,10.136,22.64,22.64,22.64
			c12.503,0,22.64-10.136,22.64-22.64V289.935h9.776v180.963c0,12.503,10.136,22.64,22.64,22.64s22.64-10.136,22.64-22.64
			c0-295.569,0-133.399,0-317.229c0-2.076,1.68-3.761,3.756-3.767c2.077-0.006,3.766,1.669,3.777,3.745c0,0,0,0.001,0,0.002v138.606
			c0,10.42,8.447,18.866,18.866,18.866s18.866-8.447,18.866-18.866v-138.7C217.526,129.059,197.185,109.131,172.306,109.131z
			 M71.641,326.447h-53.3c0-9.229,4.738-17.463,12.035-22.268c3.459,4.236,8.72,6.942,14.615,6.942
			c5.895,0,11.156-2.707,14.615-6.942C66.901,308.983,71.641,317.217,71.641,326.447z"/>
	</g>
</g>
<g>
	<g>
		<circle cx="122.209" cy="57.565" r="39.101"/>
	</g>
</g>
<g>
	<g>
		<circle cx="329.406" cy="58.591" r="38.796"/>
	</g>
</g>
<g>
	<g>
		<path d="M503.897,24.441h-77.133c-4.475,0-8.104,3.627-8.104,8.104v28.043c0,4.475,3.627,8.104,8.104,8.104h31.024v34.44
			c-4.573,2.016-8.339,5.831-10.122,10.919l-16.424,46.854l-22.629-31.986c-8.156-11.53-21.458-18.522-35.581-18.703
			c-44.88-0.577-21.54-0.466-93.971-0.466c-24.684,0-44.867,19.772-44.988,44.17v137.52c0,10.338,8.38,18.719,18.718,18.719
			c10.338,0,18.718-8.38,18.718-18.719V154.011c0-0.025,0-0.05,0.001-0.074c0.043-2.227,1.872-4.003,4.098-3.98
			c2.227,0.022,4.019,1.833,4.019,4.06l0.009,317.06c0,12.406,10.057,22.463,22.463,22.463s22.463-10.057,22.463-22.463V291.53
			h9.699v179.546c0,12.406,10.057,22.463,22.463,22.463c12.406,0,22.463-10.057,22.463-22.463c0-297.901,0-126.899,0-319.508
			l42.442,60.568c8.799,12.436,27.931,9.689,32.947-4.619l4.297-12.258c1.319,2.193,3.715,3.665,6.46,3.665
			c4.165,0,7.542-3.377,7.542-7.542v-36.07l10.122-28.877c3.257-9.292-1.257-19.408-10.122-23.306V68.69h31.024
			c4.475,0,8.104-3.627,8.104-8.104V32.543C512,28.068,508.372,24.441,503.897,24.441z"/>
	</g>
</g>
<g>
</g>
<g>
</g>
<g>
</g>
<g>
</g>
<g>
</g>
<g>
</g>
<g>
</g>
<g>
</g>
<g>
</g>
<g>
</g>
<g>
</g>
<g>
</g>
<g>
</g>
<g>
</g>
<g>
</g>
</svg>
