<?xml version="1.0" encoding="iso-8859-1"?>
<!-- Generator: Adobe Illustrator 19.0.0, SVG Export Plug-In . SVG Version: 6.00 Build 0)  -->
<svg version="1.1" id="Capa_1" xmlns="http://www.w3.org/2000/svg" xmlns:xlink="http://www.w3.org/1999/xlink" x="0px" y="0px"
	 viewBox="0 0 511.996 511.996" style="enable-background:new 0 0 511.996 511.996;" xml:space="preserve">
<g>
	<g>
		<circle cx="192.466" cy="44.924" r="44.924"/>
	</g>
</g>
<g>
	<g>
		<path d="M315.585,205.562l-71.445-7.68l-27.225-56.969l32.011,39.835l-5.907-48.591c-2.023-16.638-17.15-28.486-33.788-26.463
			l-53.723,6.531c-16.638,2.023-28.486,17.15-26.463,33.788l18.625,153.21l-3.051,72.922l-43.409,105.359
			c-5.255,12.753,0.825,27.35,13.578,32.604c12.75,5.254,27.349-0.823,32.605-13.577L192.48,387.1
			c1.109-2.693,1.739-5.559,1.861-8.469c3.707-88.583,3.496-83.132,3.489-84.131l13.245-1.61l29.19,79.587l16.05,117.912
			c1.861,13.67,14.449,23.239,28.115,21.377c13.667-1.86,23.238-14.447,21.377-28.115L289.39,363.052
			c-0.243-1.785-0.679-3.539-1.3-5.232l-26.381-71.927l-3.492-28.73c-13.175-1.417-25.325-2.722-38.457-4.135
			c-11.412-1.227-20.305-9.7-22.637-20.325l-16.258-74.564l32.031,67.027c2.987,6.252,9.002,10.51,15.89,11.25l82.529,8.872
			c10.971,1.18,20.821-6.759,22-17.729C334.494,216.591,326.556,206.742,315.585,205.562z"/>
	</g>
</g>
<g>
	<g>
		<path d="M401.339,44.924H300.802c-6.259,0-11.334,5.075-11.334,11.334v65.931c0,6.259,5.075,11.334,11.334,11.334h-26.007
			c-7.172,0-12.986,5.814-12.986,12.986v35.69l55.645,5.982c20.57,2.212,35.454,20.679,33.242,41.25
			c-1.259,11.712-7.791,21.573-16.977,27.492h54.647c7.172,0,12.986-5.814,12.986-12.986V146.51c0-7.172-5.814-12.986-12.986-12.986
			h12.974c6.259,0,11.334-5.075,11.334-11.334V56.258C412.673,49.999,407.599,44.924,401.339,44.924z"/>
	</g>
</g>
<g>
</g>
<g>
</g>
<g>
</g>
<g>
</g>
<g>
</g>
<g>
</g>
<g>
</g>
<g>
</g>
<g>
</g>
<g>
</g>
<g>
</g>
<g>
</g>
<g>
</g>
<g>
</g>
<g>
</g>
</svg>
