<?xml version="1.0" encoding="iso-8859-1"?>
<!-- Generator: Adobe Illustrator 19.0.0, SVG Export Plug-In . SVG Version: 6.00 Build 0)  -->
<svg version="1.1" id="Capa_1" xmlns="http://www.w3.org/2000/svg" xmlns:xlink="http://www.w3.org/1999/xlink" x="0px" y="0px"
	 viewBox="0 0 511.997 511.997" style="enable-background:new 0 0 511.997 511.997;" xml:space="preserve">
<g>
	<g>
		<circle cx="186.399" cy="45.128" r="45.128"/>
	</g>
</g>
<g>
	<g>
		<path d="M343.99,252.292l-37.548-54.074c-2.171-3.126-6.463-3.9-9.588-1.73l-16.53,11.478l13.227,5.544
			c19.168,8.035,28.193,30.086,20.158,49.254c-0.708,1.69-1.53,3.295-2.446,4.823l3.481,5.012c2.171,3.126,6.463,3.9,9.588,1.729
			l17.927-12.447C345.385,259.71,346.16,255.418,343.99,252.292z"/>
	</g>
</g>
<g>
	<g>
		<path d="M286.764,229.705l-71.301-29.887l-22.113-61.941l29.439,45.525l4.41-42.708c1.73-16.747-10.445-31.726-27.193-33.456
			l-54.077-5.584c-16.747-1.73-31.726,10.445-33.456,27.193L96.748,284.465l-5.047,87.042L48.095,477.346
			c-5.277,12.811,0.829,27.475,13.64,32.752c12.816,5.28,27.477-0.834,32.752-13.64l45.291-109.927
			c1.115-2.705,1.748-5.584,1.87-8.508l3.135-88.599l11.188,1.155l29.804,81.258l16.124,118.448
			c1.869,13.729,14.514,23.343,28.242,21.474c13.729-1.868,23.343-14.514,21.474-28.242l-16.49-121.144
			c-0.244-1.793-0.681-3.555-1.305-5.255l-22.606-61.632l3.453-33.437c-39.42-16.525-25.75-10.794-36.055-15.114
			c-8.265-3.464-13.561-11.068-14.515-19.38l-8.551-76.184l25.089,70.28c1.897,5.313,5.941,9.581,11.143,11.762l79.467,33.31
			c10.222,4.285,21.983-0.528,26.269-10.75C301.799,245.751,296.985,233.99,286.764,229.705z"/>
	</g>
</g>
<g>
	<g>
		<path d="M455.873,307.733H417.78c3.144-8.244-2.965-17.007-11.712-17.007h-75.596c-8.742,0-14.858,8.758-11.712,17.007h-38.093
			c-5.483,0-9.929,4.445-9.929,9.929c0,5.303,0,177.532,0,184.407c0,5.483,4.445,9.929,9.929,9.929h19.997
			c5.483,0,9.929-4.445,9.929-9.929v-4.79h115.353v4.79c0,5.483,4.445,9.929,9.929,9.929h19.997c5.483,0,9.929-4.445,9.929-9.929
			c0-6.643,0-167.952,0-184.407C465.802,312.178,461.356,307.733,455.873,307.733z"/>
	</g>
</g>
<g>
</g>
<g>
</g>
<g>
</g>
<g>
</g>
<g>
</g>
<g>
</g>
<g>
</g>
<g>
</g>
<g>
</g>
<g>
</g>
<g>
</g>
<g>
</g>
<g>
</g>
<g>
</g>
<g>
</g>
</svg>
