<?xml version="1.0" encoding="iso-8859-1"?>
<!-- Generator: Adobe Illustrator 19.0.0, SVG Export Plug-In . SVG Version: 6.00 Build 0)  -->
<svg version="1.1" id="Capa_1" xmlns="http://www.w3.org/2000/svg" xmlns:xlink="http://www.w3.org/1999/xlink" x="0px" y="0px"
	 viewBox="0 0 512 512" style="enable-background:new 0 0 512 512;" xml:space="preserve">
<g>
	<g>
		<circle cx="81.341" cy="189.4" r="40.25"/>
	</g>
</g>
<g>
	<g>
		<path d="M152.737,327.098l-60.545-11.723l-16.123-50.229l17.692,30.191l0.329-20.882c0.282-17.908-14.103-32.619-32.005-32.747
			l-13.779-0.099C21.635,241.417-0.073,263.043,0,289.7l0.134,80.852C0.176,395.941,20.77,416.5,46.159,416.5h28.583l-47.66,34.851
			c-10.3,7.531-12.544,21.986-5.012,32.286c7.535,10.303,21.992,12.541,32.285,5.012l46.543-34.034l25.042-62.096
			c1.928-4.389,1.377-9.516-1.439-13.381c-2.026-2.781-5.024-4.686-8.402-5.339c-14.043-2.719-45.626-8.835-51.258-9.925
			c-10.789-2.089-18.495-11.088-19.454-21.506l-5.982-65.455c0.001,0.003,19.605,61.079,19.607,61.082
			c2.061,6.417,7.439,11.503,14.433,12.958c0.081,0.017,0.157,0.043,0.238,0.059l71.733,13.89
			c10.437,2.021,20.54-4.801,22.561-15.241C169.999,339.22,163.176,329.119,152.737,327.098z"/>
	</g>
</g>
<g>
	<g>
		<path d="M272.795,194.928c-18.439-5.481-28.944-24.873-23.462-43.313c0.07-0.235,0.152-0.464,0.226-0.696
			c-0.724,0.216-1.369,0.664-1.817,1.3l-15.223,21.611l-23.312,10.895c-1.886,0.882-2.552,3.237-1.401,4.976l13.875,20.958
			c1.81,2.734,4.865,4.385,8.145,4.401l32.817,0.161l16.642,10.503c2.268,1.432,5.234-0.202,5.234-2.886v-24.425L272.795,194.928z"
			/>
	</g>
</g>
<g>
	<g>
		<path d="M510.954,462.788l-30.621-98.867c-3.336-79.75-3.083-73.985-3.154-74.9h0.122V144.245
			c0-15.584-12.634-28.217-28.218-28.217h-50.32c-15.584,0-28.218,12.633-28.218,28.217v0.754l38.214-12.279l-52.15,31.405
			l-68.596-20.391c-9.835-2.924-20.177,2.679-23.099,12.513c-2.923,9.835,2.679,20.177,12.513,23.101
			c83.226,24.74,77.959,23.497,81.743,23.497c3.345,0,6.663-0.903,9.584-2.663l59.174-35.634l-57.383,53.992v69.762l-23.753,60.768
			c-0.67,1.713-1.133,3.499-1.381,5.321l-15.264,112.135c-1.73,12.708,7.169,24.411,19.877,26.141
			c12.707,1.731,24.411-7.17,26.141-19.877l14.891-109.391l29.073-74.378h10.762c-0.162,2.073-0.319-3.463,3.167,79.858
			c0.084,2.002,0.426,3.985,1.019,5.899l31.514,101.751c3.795,12.25,16.8,19.105,29.051,15.312
			C507.893,488.046,514.748,475.039,510.954,462.788z"/>
	</g>
</g>
<g>
	<g>
		<circle cx="417.204" cy="60.138" r="41.771"/>
	</g>
</g>
<g>
	<g>
		<path d="M266.855,447.651L245.6,399.269c-4.329-9.854-3.098-21.313,3.24-30.011c1.33-1.825,2.04-3.747,2.04-5.731
			c0-11.945-25.711-21.628-57.428-21.628c-3.767,0-7.445,0.141-11.01,0.402c0.363,3.28,0.244,6.67-0.416,10.081
			c-3.521,18.183-21.104,30.072-39.286,26.576c1.846,6.634,1.42,13.812-1.435,20.312l-21.255,48.382
			c-4.455,10.14-3.49,21.843,2.565,31.117c6.055,9.274,16.382,14.864,27.458,14.864h86.76c11.075,0,21.402-5.591,27.457-14.864
			C270.345,469.495,271.31,457.791,266.855,447.651z"/>
	</g>
</g>
<g>
</g>
<g>
</g>
<g>
</g>
<g>
</g>
<g>
</g>
<g>
</g>
<g>
</g>
<g>
</g>
<g>
</g>
<g>
</g>
<g>
</g>
<g>
</g>
<g>
</g>
<g>
</g>
<g>
</g>
</svg>
